<mxfile host="app.diagrams.net" agent="Mozilla/5.0 (Windows NT 10.0; Win64; x64) AppleWebKit/537.36 (KHTML, like Gecko) Chrome/139.0.0.0 Safari/537.36" version="28.2.0">
  <diagram name="Page-1" id="qgcxL-gFeJdS697_Zm7y">
    <mxGraphModel dx="826" dy="441" grid="1" gridSize="10" guides="1" tooltips="1" connect="1" arrows="1" fold="1" page="1" pageScale="1" pageWidth="827" pageHeight="1169" math="0" shadow="0">
      <root>
        <mxCell id="0" />
        <mxCell id="1" parent="0" />
        <mxCell id="uwgm3difZ7p0GY9IQW5H-5" value="" style="fontColor=#0066CC;verticalAlign=top;verticalLabelPosition=bottom;labelPosition=center;align=center;html=1;outlineConnect=0;fillColor=#CCCCCC;strokeColor=#6881B3;gradientColor=none;gradientDirection=north;strokeWidth=2;shape=mxgraph.networks.modem;" vertex="1" parent="1">
          <mxGeometry x="30" y="210" width="100" height="30" as="geometry" />
        </mxCell>
        <mxCell id="uwgm3difZ7p0GY9IQW5H-19" style="edgeStyle=orthogonalEdgeStyle;rounded=0;orthogonalLoop=1;jettySize=auto;html=1;entryX=0;entryY=0.5;entryDx=0;entryDy=0;" edge="1" parent="1" source="uwgm3difZ7p0GY9IQW5H-7" target="uwgm3difZ7p0GY9IQW5H-9">
          <mxGeometry relative="1" as="geometry" />
        </mxCell>
        <mxCell id="uwgm3difZ7p0GY9IQW5H-7" value="" style="fontColor=#0066CC;verticalAlign=top;verticalLabelPosition=bottom;labelPosition=center;align=center;html=1;outlineConnect=0;fillColor=#CCCCCC;strokeColor=#6881B3;gradientColor=none;gradientDirection=north;strokeWidth=2;shape=mxgraph.networks.router;" vertex="1" parent="1">
          <mxGeometry x="190" y="210" width="100" height="30" as="geometry" />
        </mxCell>
        <mxCell id="uwgm3difZ7p0GY9IQW5H-20" style="edgeStyle=orthogonalEdgeStyle;rounded=0;orthogonalLoop=1;jettySize=auto;html=1;fillColor=#60a917;strokeColor=#2D7600;" edge="1" parent="1" source="uwgm3difZ7p0GY9IQW5H-9">
          <mxGeometry relative="1" as="geometry">
            <mxPoint x="366" y="380" as="targetPoint" />
          </mxGeometry>
        </mxCell>
        <mxCell id="uwgm3difZ7p0GY9IQW5H-23" style="edgeStyle=orthogonalEdgeStyle;rounded=0;orthogonalLoop=1;jettySize=auto;html=1;entryX=1;entryY=0.5;entryDx=0;entryDy=0;fillColor=#60a917;strokeColor=#2D7600;" edge="1" parent="1" source="uwgm3difZ7p0GY9IQW5H-9" target="uwgm3difZ7p0GY9IQW5H-13">
          <mxGeometry relative="1" as="geometry">
            <Array as="points">
              <mxPoint x="430" y="225" />
              <mxPoint x="430" y="555" />
            </Array>
          </mxGeometry>
        </mxCell>
        <mxCell id="uwgm3difZ7p0GY9IQW5H-9" value="" style="image;aspect=fixed;perimeter=ellipsePerimeter;html=1;align=center;fontSize=12;verticalAlign=top;fontColor=#364149;shadow=0;dashed=0;image=img/lib/cumulus/switch_bare_metal_empty.svg;" vertex="1" parent="1">
          <mxGeometry x="318" y="213" width="96" height="24" as="geometry" />
        </mxCell>
        <mxCell id="uwgm3difZ7p0GY9IQW5H-10" value="" style="fontColor=#0066CC;verticalAlign=top;verticalLabelPosition=bottom;labelPosition=center;align=center;html=1;outlineConnect=0;fillColor=#CCCCCC;strokeColor=#6881B3;gradientColor=none;gradientDirection=north;strokeWidth=2;shape=mxgraph.networks.router;" vertex="1" parent="1">
          <mxGeometry x="190" y="380" width="100" height="30" as="geometry" />
        </mxCell>
        <mxCell id="uwgm3difZ7p0GY9IQW5H-11" value="" style="fontColor=#0066CC;verticalAlign=top;verticalLabelPosition=bottom;labelPosition=center;align=center;html=1;outlineConnect=0;fillColor=#CCCCCC;strokeColor=#6881B3;gradientColor=none;gradientDirection=north;strokeWidth=2;shape=mxgraph.networks.router;" vertex="1" parent="1">
          <mxGeometry x="190" y="540" width="100" height="30" as="geometry" />
        </mxCell>
        <mxCell id="uwgm3difZ7p0GY9IQW5H-41" style="edgeStyle=orthogonalEdgeStyle;rounded=0;orthogonalLoop=1;jettySize=auto;html=1;exitX=1;exitY=0.5;exitDx=0;exitDy=0;" edge="1" parent="1" source="uwgm3difZ7p0GY9IQW5H-12" target="uwgm3difZ7p0GY9IQW5H-40">
          <mxGeometry relative="1" as="geometry">
            <Array as="points">
              <mxPoint x="447" y="395" />
              <mxPoint x="447" y="470" />
            </Array>
          </mxGeometry>
        </mxCell>
        <mxCell id="uwgm3difZ7p0GY9IQW5H-12" value="" style="image;aspect=fixed;perimeter=ellipsePerimeter;html=1;align=center;fontSize=12;verticalAlign=top;fontColor=#364149;shadow=0;dashed=0;image=img/lib/cumulus/switch_bare_metal_empty.svg;" vertex="1" parent="1">
          <mxGeometry x="318" y="383" width="96" height="24" as="geometry" />
        </mxCell>
        <mxCell id="uwgm3difZ7p0GY9IQW5H-24" style="edgeStyle=orthogonalEdgeStyle;rounded=0;orthogonalLoop=1;jettySize=auto;html=1;" edge="1" parent="1" source="uwgm3difZ7p0GY9IQW5H-13" target="uwgm3difZ7p0GY9IQW5H-11">
          <mxGeometry relative="1" as="geometry" />
        </mxCell>
        <mxCell id="uwgm3difZ7p0GY9IQW5H-49" style="edgeStyle=orthogonalEdgeStyle;rounded=0;orthogonalLoop=1;jettySize=auto;html=1;" edge="1" parent="1" source="uwgm3difZ7p0GY9IQW5H-13" target="uwgm3difZ7p0GY9IQW5H-42">
          <mxGeometry relative="1" as="geometry">
            <Array as="points">
              <mxPoint x="366" y="610" />
              <mxPoint x="494" y="610" />
            </Array>
          </mxGeometry>
        </mxCell>
        <mxCell id="uwgm3difZ7p0GY9IQW5H-50" style="edgeStyle=orthogonalEdgeStyle;rounded=0;orthogonalLoop=1;jettySize=auto;html=1;exitX=0.5;exitY=1;exitDx=0;exitDy=0;" edge="1" parent="1" source="uwgm3difZ7p0GY9IQW5H-13" target="uwgm3difZ7p0GY9IQW5H-44">
          <mxGeometry relative="1" as="geometry">
            <Array as="points">
              <mxPoint x="366" y="610" />
              <mxPoint x="541" y="610" />
            </Array>
          </mxGeometry>
        </mxCell>
        <mxCell id="uwgm3difZ7p0GY9IQW5H-51" style="edgeStyle=orthogonalEdgeStyle;rounded=0;orthogonalLoop=1;jettySize=auto;html=1;" edge="1" parent="1" source="uwgm3difZ7p0GY9IQW5H-13" target="uwgm3difZ7p0GY9IQW5H-45">
          <mxGeometry relative="1" as="geometry">
            <Array as="points">
              <mxPoint x="366" y="610" />
              <mxPoint x="587" y="610" />
            </Array>
          </mxGeometry>
        </mxCell>
        <mxCell id="uwgm3difZ7p0GY9IQW5H-52" style="edgeStyle=orthogonalEdgeStyle;rounded=0;orthogonalLoop=1;jettySize=auto;html=1;" edge="1" parent="1" source="uwgm3difZ7p0GY9IQW5H-13" target="uwgm3difZ7p0GY9IQW5H-46">
          <mxGeometry relative="1" as="geometry">
            <Array as="points">
              <mxPoint x="366" y="610" />
              <mxPoint x="634" y="610" />
            </Array>
          </mxGeometry>
        </mxCell>
        <mxCell id="uwgm3difZ7p0GY9IQW5H-56" style="edgeStyle=orthogonalEdgeStyle;rounded=0;orthogonalLoop=1;jettySize=auto;html=1;" edge="1" parent="1" source="uwgm3difZ7p0GY9IQW5H-13" target="uwgm3difZ7p0GY9IQW5H-55">
          <mxGeometry relative="1" as="geometry">
            <Array as="points">
              <mxPoint x="366" y="610" />
              <mxPoint x="684" y="610" />
            </Array>
          </mxGeometry>
        </mxCell>
        <mxCell id="uwgm3difZ7p0GY9IQW5H-13" value="" style="image;aspect=fixed;perimeter=ellipsePerimeter;html=1;align=center;fontSize=12;verticalAlign=top;fontColor=#364149;shadow=0;dashed=0;image=img/lib/cumulus/switch_bare_metal_empty.svg;" vertex="1" parent="1">
          <mxGeometry x="318" y="543" width="96" height="24" as="geometry" />
        </mxCell>
        <mxCell id="uwgm3difZ7p0GY9IQW5H-14" style="edgeStyle=orthogonalEdgeStyle;rounded=0;orthogonalLoop=1;jettySize=auto;html=1;entryX=0;entryY=0.5;entryDx=0;entryDy=0;entryPerimeter=0;" edge="1" parent="1" source="uwgm3difZ7p0GY9IQW5H-5" target="uwgm3difZ7p0GY9IQW5H-7">
          <mxGeometry relative="1" as="geometry" />
        </mxCell>
        <mxCell id="uwgm3difZ7p0GY9IQW5H-18" style="edgeStyle=orthogonalEdgeStyle;rounded=0;orthogonalLoop=1;jettySize=auto;html=1;entryX=1;entryY=0.5;entryDx=0;entryDy=0;entryPerimeter=0;" edge="1" parent="1" source="uwgm3difZ7p0GY9IQW5H-12" target="uwgm3difZ7p0GY9IQW5H-10">
          <mxGeometry relative="1" as="geometry" />
        </mxCell>
        <mxCell id="uwgm3difZ7p0GY9IQW5H-25" value="" style="shape=mxgraph.networks2.icon;aspect=fixed;fillColor=#EDEDED;strokeColor=#000000;gradientColor=#5B6163;network2IconShadow=1;network2bgFillColor=none;labelPosition=center;verticalLabelPosition=bottom;align=center;verticalAlign=top;network2Icon=mxgraph.networks2.pc;network2IconYOffset=-0.0593;network2IconW=0.9999;network2IconH=0.7096;" vertex="1" parent="1">
          <mxGeometry x="480" y="313.76" width="49.995" height="35.480000000000004" as="geometry" />
        </mxCell>
        <mxCell id="uwgm3difZ7p0GY9IQW5H-26" value="" style="shape=mxgraph.networks2.icon;aspect=fixed;fillColor=#EDEDED;strokeColor=#000000;gradientColor=#5B6163;network2IconShadow=1;network2bgFillColor=none;labelPosition=center;verticalLabelPosition=bottom;align=center;verticalAlign=top;network2Icon=mxgraph.networks2.pc;network2IconYOffset=-0.0593;network2IconW=0.9999;network2IconH=0.7096;" vertex="1" parent="1">
          <mxGeometry x="480" y="360.76" width="49.995" height="35.480000000000004" as="geometry" />
        </mxCell>
        <mxCell id="uwgm3difZ7p0GY9IQW5H-27" value="" style="shape=mxgraph.networks2.icon;aspect=fixed;fillColor=#EDEDED;strokeColor=#000000;gradientColor=#5B6163;network2IconShadow=1;network2bgFillColor=none;labelPosition=center;verticalLabelPosition=bottom;align=center;verticalAlign=top;network2Icon=mxgraph.networks2.pc;network2IconYOffset=-0.0593;network2IconW=0.9999;network2IconH=0.7096;" vertex="1" parent="1">
          <mxGeometry x="480" y="407" width="49.995" height="35.480000000000004" as="geometry" />
        </mxCell>
        <mxCell id="uwgm3difZ7p0GY9IQW5H-29" value="" style="shape=mxgraph.networks2.icon;aspect=fixed;fillColor=#EDEDED;strokeColor=#000000;gradientColor=#5B6163;network2IconShadow=1;network2bgFillColor=none;labelPosition=center;verticalLabelPosition=bottom;align=center;verticalAlign=top;network2Icon=mxgraph.networks2.pc;network2IconYOffset=-0.0593;network2IconW=0.9999;network2IconH=0.7096;" vertex="1" parent="1">
          <mxGeometry x="150" y="294.52" width="49.995" height="35.480000000000004" as="geometry" />
        </mxCell>
        <mxCell id="uwgm3difZ7p0GY9IQW5H-30" value="" style="sketch=0;pointerEvents=1;shadow=0;dashed=0;html=1;strokeColor=none;fillColor=#434445;aspect=fixed;labelPosition=center;verticalLabelPosition=bottom;verticalAlign=top;align=center;outlineConnect=0;shape=mxgraph.vvd.wi_fi;" vertex="1" parent="1">
          <mxGeometry x="250" y="160" width="40" height="40" as="geometry" />
        </mxCell>
        <mxCell id="uwgm3difZ7p0GY9IQW5H-31" value="" style="sketch=0;pointerEvents=1;shadow=0;dashed=0;html=1;strokeColor=none;fillColor=#434445;aspect=fixed;labelPosition=center;verticalLabelPosition=bottom;verticalAlign=top;align=center;outlineConnect=0;shape=mxgraph.vvd.wi_fi;" vertex="1" parent="1">
          <mxGeometry x="250" y="330" width="40" height="40" as="geometry" />
        </mxCell>
        <mxCell id="uwgm3difZ7p0GY9IQW5H-32" value="" style="sketch=0;pointerEvents=1;shadow=0;dashed=0;html=1;strokeColor=none;fillColor=#434445;aspect=fixed;labelPosition=center;verticalLabelPosition=bottom;verticalAlign=top;align=center;outlineConnect=0;shape=mxgraph.vvd.wi_fi;" vertex="1" parent="1">
          <mxGeometry x="250" y="490" width="40" height="40" as="geometry" />
        </mxCell>
        <mxCell id="uwgm3difZ7p0GY9IQW5H-33" style="edgeStyle=orthogonalEdgeStyle;rounded=0;orthogonalLoop=1;jettySize=auto;html=1;entryX=-0.013;entryY=0.523;entryDx=0;entryDy=0;entryPerimeter=0;" edge="1" parent="1" source="uwgm3difZ7p0GY9IQW5H-12" target="uwgm3difZ7p0GY9IQW5H-25">
          <mxGeometry relative="1" as="geometry" />
        </mxCell>
        <mxCell id="uwgm3difZ7p0GY9IQW5H-34" style="edgeStyle=orthogonalEdgeStyle;rounded=0;orthogonalLoop=1;jettySize=auto;html=1;entryX=-0.024;entryY=0.53;entryDx=0;entryDy=0;entryPerimeter=0;" edge="1" parent="1" source="uwgm3difZ7p0GY9IQW5H-12" target="uwgm3difZ7p0GY9IQW5H-26">
          <mxGeometry relative="1" as="geometry" />
        </mxCell>
        <mxCell id="uwgm3difZ7p0GY9IQW5H-35" style="edgeStyle=orthogonalEdgeStyle;rounded=0;orthogonalLoop=1;jettySize=auto;html=1;entryX=-0.03;entryY=0.534;entryDx=0;entryDy=0;entryPerimeter=0;" edge="1" parent="1" source="uwgm3difZ7p0GY9IQW5H-12" target="uwgm3difZ7p0GY9IQW5H-27">
          <mxGeometry relative="1" as="geometry" />
        </mxCell>
        <mxCell id="uwgm3difZ7p0GY9IQW5H-40" value="" style="sketch=0;outlineConnect=0;fontColor=#232F3E;gradientColor=none;fillColor=#232F3D;strokeColor=none;dashed=0;verticalLabelPosition=bottom;verticalAlign=top;align=center;html=1;fontSize=12;fontStyle=0;aspect=fixed;pointerEvents=1;shape=mxgraph.aws4.traditional_server;" vertex="1" parent="1">
          <mxGeometry x="491.15" y="452" width="27.69" height="48" as="geometry" />
        </mxCell>
        <mxCell id="uwgm3difZ7p0GY9IQW5H-42" value="" style="sketch=0;outlineConnect=0;fontColor=#232F3E;gradientColor=none;fillColor=#232F3D;strokeColor=none;dashed=0;verticalLabelPosition=bottom;verticalAlign=top;align=center;html=1;fontSize=12;fontStyle=0;aspect=fixed;pointerEvents=1;shape=mxgraph.aws4.traditional_server;" vertex="1" parent="1">
          <mxGeometry x="480" y="543" width="27.69" height="48" as="geometry" />
        </mxCell>
        <mxCell id="uwgm3difZ7p0GY9IQW5H-43" value="" style="shape=mxgraph.networks2.icon;aspect=fixed;fillColor=#EDEDED;strokeColor=#000000;gradientColor=#5B6163;network2IconShadow=1;network2bgFillColor=none;labelPosition=center;verticalLabelPosition=bottom;align=center;verticalAlign=top;network2Icon=mxgraph.networks2.cctv;network2IconXOffset=-0.0002;network2IconYOffset=-0.0355;network2IconW=1.0004;network2IconH=0.7279;" vertex="1" parent="1">
          <mxGeometry x="720" y="552" width="41.23" height="30" as="geometry" />
        </mxCell>
        <mxCell id="uwgm3difZ7p0GY9IQW5H-44" value="" style="sketch=0;outlineConnect=0;fontColor=#232F3E;gradientColor=none;fillColor=#232F3D;strokeColor=none;dashed=0;verticalLabelPosition=bottom;verticalAlign=top;align=center;html=1;fontSize=12;fontStyle=0;aspect=fixed;pointerEvents=1;shape=mxgraph.aws4.traditional_server;" vertex="1" parent="1">
          <mxGeometry x="527" y="543" width="27.69" height="48" as="geometry" />
        </mxCell>
        <mxCell id="uwgm3difZ7p0GY9IQW5H-45" value="" style="sketch=0;outlineConnect=0;fontColor=#232F3E;gradientColor=none;fillColor=#232F3D;strokeColor=none;dashed=0;verticalLabelPosition=bottom;verticalAlign=top;align=center;html=1;fontSize=12;fontStyle=0;aspect=fixed;pointerEvents=1;shape=mxgraph.aws4.traditional_server;" vertex="1" parent="1">
          <mxGeometry x="573" y="543" width="27.69" height="48" as="geometry" />
        </mxCell>
        <mxCell id="uwgm3difZ7p0GY9IQW5H-46" value="" style="sketch=0;outlineConnect=0;fontColor=#232F3E;gradientColor=none;fillColor=#232F3D;strokeColor=none;dashed=0;verticalLabelPosition=bottom;verticalAlign=top;align=center;html=1;fontSize=12;fontStyle=0;aspect=fixed;pointerEvents=1;shape=mxgraph.aws4.traditional_server;" vertex="1" parent="1">
          <mxGeometry x="620" y="543" width="27.69" height="48" as="geometry" />
        </mxCell>
        <mxCell id="uwgm3difZ7p0GY9IQW5H-54" style="edgeStyle=orthogonalEdgeStyle;rounded=0;orthogonalLoop=1;jettySize=auto;html=1;entryX=0.504;entryY=0.967;entryDx=0;entryDy=0;entryPerimeter=0;" edge="1" parent="1" source="uwgm3difZ7p0GY9IQW5H-13" target="uwgm3difZ7p0GY9IQW5H-43">
          <mxGeometry relative="1" as="geometry">
            <Array as="points">
              <mxPoint x="366" y="610" />
              <mxPoint x="740" y="610" />
              <mxPoint x="740" y="581" />
            </Array>
          </mxGeometry>
        </mxCell>
        <mxCell id="uwgm3difZ7p0GY9IQW5H-55" value="" style="sketch=0;outlineConnect=0;fontColor=#232F3E;gradientColor=none;fillColor=#232F3D;strokeColor=none;dashed=0;verticalLabelPosition=bottom;verticalAlign=top;align=center;html=1;fontSize=12;fontStyle=0;aspect=fixed;pointerEvents=1;shape=mxgraph.aws4.traditional_server;" vertex="1" parent="1">
          <mxGeometry x="670" y="543" width="27.69" height="48" as="geometry" />
        </mxCell>
        <mxCell id="uwgm3difZ7p0GY9IQW5H-57" value="HOMELAB-VM10" style="text;html=1;align=center;verticalAlign=middle;resizable=0;points=[];autosize=1;strokeColor=none;fillColor=none;fontSize=8;" vertex="1" parent="1">
          <mxGeometry x="518.84" y="480" width="90" height="20" as="geometry" />
        </mxCell>
      </root>
    </mxGraphModel>
  </diagram>
</mxfile>
